<svg xmlns="http://www.w3.org/2000/svg" viewBox="0 0 500 500"><g id="freepik--Monitor--inject-23"><path d="M149.8,398.23l-12.71-7.33a9.43,9.43,0,0,1,0-16.37l22.15-12.69a30.52,30.52,0,0,1,30.36.06,26.33,26.33,0,0,0,26.27,0l45.61-26.35a8.39,8.39,0,0,0,0-14.53l-46.17-26.66a10.52,10.52,0,0,1-5.24-9.08V279.2h4.19v6.09a6.32,6.32,0,0,0,3.15,5.45l46.16,26.65a12.59,12.59,0,0,1,0,21.81L218,365.54a30.47,30.47,0,0,1-30.45,0,26.33,26.33,0,0,0-26.18,0l-22.16,12.69a5.25,5.25,0,0,0,0,9.1l12.72,7.32Z" style="fill:#455a64"></path><path d="M214.28,285.29V279.2h-4.19v6.09a10.5,10.5,0,0,0,1.43,5.28l3.63-2.1A6.38,6.38,0,0,1,214.28,285.29Z" style="opacity:0.30000000000000004"></path><path d="M144.42,395.43v.07s0-.05,0-.07Z" style="fill:#37474f"></path><path d="M155.39,403.14l-9.88-5.72a2.2,2.2,0,0,1-1.09-1.89v6.73h0a2.18,2.18,0,0,0,1.08,1.95l9.88,5.72,13.17-7.6-5.88-3.4Z" style="fill:#37474f"></path><path d="M145.51,397.42l9.88,5.72,7.29-4.21,5.88-3.39-9.87-5.7a6.55,6.55,0,0,0-6.55,0l-6.62,3.79a2.16,2.16,0,0,0-1.09,1.81s0,.05,0,.07v0A2.2,2.2,0,0,0,145.51,397.42Z" style="fill:#455a64"></path><path d="M156.38,413.63V403.57a2.18,2.18,0,0,1,1.1-1.89l14.16-8.18a.72.72,0,0,1,.8.05h0l-1.95-1.36h0a.71.71,0,0,0-.8-.06l-14.17,8.18a2.2,2.2,0,0,0-1.09,1.9v10.06a.72.72,0,0,0,.35.62h0l1.92,1.34h0A.7.7,0,0,1,156.38,413.63Z" style="fill:#455a64"></path><path d="M156.38,413.63V403.57a2.18,2.18,0,0,1,1.1-1.89l14.16-8.18a.72.72,0,0,1,.8.05h0l-1.95-1.36h0a.71.71,0,0,0-.8-.06l-14.17,8.18a2.2,2.2,0,0,0-1.09,1.9v10.06a.72.72,0,0,0,.35.62h0l1.92,1.34h0A.7.7,0,0,1,156.38,413.63Z" style="fill:#fff;opacity:0.2"></path><path d="M172.44,393.55a.72.72,0,0,0-.8-.05l-14.16,8.18a2.18,2.18,0,0,0-1.1,1.89v10.06a.7.7,0,0,0,.32.6.73.73,0,0,0,.78,0l14.16-8.18a2.2,2.2,0,0,0,1.1-1.9V394.13A.71.71,0,0,0,172.44,393.55Z" style="fill:#455a64"></path><path d="M173.68,412.91a6.07,6.07,0,0,0-2.75-4.77L161,402.42l-.84.49,0,6.36,9.91,5.72a1.92,1.92,0,0,0,2,.18h0l.82-.48h0A2,2,0,0,0,173.68,412.91Zm-2.59-.24a1.54,1.54,0,0,1-.37-.14,2.82,2.82,0,0,1-1.27-2.2,1.09,1.09,0,0,1,0-.26,1.37,1.37,0,0,1,.38.14,2.78,2.78,0,0,1,1.27,2.21A.93.93,0,0,1,171.09,412.67Z" style="fill:#0D6EFD"></path><path d="M173.68,412.91a6.07,6.07,0,0,0-2.75-4.77L161,402.42l-.84.49,0,6.36,9.91,5.72a1.92,1.92,0,0,0,2,.18h0l.82-.48h0A2,2,0,0,0,173.68,412.91Zm-2.59-.24a1.54,1.54,0,0,1-.37-.14,2.82,2.82,0,0,1-1.27-2.2,1.09,1.09,0,0,1,0-.26,1.37,1.37,0,0,1,.38.14,2.78,2.78,0,0,1,1.27,2.21A.93.93,0,0,1,171.09,412.67Z" style="fill:#fff;opacity:0.5"></path><path d="M173.68,412.91a6.07,6.07,0,0,0-2.75-4.77L161,402.42l-.84.49,9.9,5.72a6.08,6.08,0,0,1,2.76,4.77,1.94,1.94,0,0,1-.8,1.77h0l.82-.48h0A2,2,0,0,0,173.68,412.91Z" style="opacity:0.2"></path><g style="opacity:0.2"><path d="M169.45,410.33a1.09,1.09,0,0,1,0-.26c-.52-.11-.89.22-.9.88a2.8,2.8,0,0,0,1.27,2.19c.63.36,1.15.15,1.26-.46a1.36,1.36,0,0,1-.39-.15A2.82,2.82,0,0,1,169.45,410.33Z"></path></g><path d="M181.39,408.66a6.07,6.07,0,0,0-2.75-4.77l-9.91-5.72-.84.49,0,6.37,9.91,5.72a1.94,1.94,0,0,0,2,.18h0l.82-.48h0l0,0h0A2,2,0,0,0,181.39,408.66Zm-2.58-.23a1.3,1.3,0,0,1-.38-.15,2.8,2.8,0,0,1-1.27-2.19,1.18,1.18,0,0,1,0-.27,1.3,1.3,0,0,1,.38.15,2.8,2.8,0,0,1,1.28,2.2A2,2,0,0,1,178.81,408.43Z" style="fill:#0D6EFD"></path><path d="M181.39,408.66a6.07,6.07,0,0,0-2.75-4.77l-9.91-5.72-.84.49,0,6.37,9.91,5.72a1.94,1.94,0,0,0,2,.18h0l.82-.48h0l0,0h0A2,2,0,0,0,181.39,408.66Zm-2.58-.23a1.3,1.3,0,0,1-.38-.15,2.8,2.8,0,0,1-1.27-2.19,1.18,1.18,0,0,1,0-.27,1.3,1.3,0,0,1,.38.15,2.8,2.8,0,0,1,1.28,2.2A2,2,0,0,1,178.81,408.43Z" style="fill:#fff;opacity:0.5"></path><path d="M181.39,408.66a6.07,6.07,0,0,0-2.75-4.77l-9.91-5.72-.84.49,9.91,5.72a6.07,6.07,0,0,1,2.75,4.77,2,2,0,0,1-.8,1.78h0l.82-.48h0l0,0h0A2,2,0,0,0,181.39,408.66Z" style="opacity:0.2"></path><g style="opacity:0.2"><path d="M177.16,406.09a1.12,1.12,0,0,1,0-.27c-.51-.11-.89.23-.89.88a2.78,2.78,0,0,0,1.26,2.2c.63.36,1.15.14,1.26-.47a1.47,1.47,0,0,1-.39-.15A2.8,2.8,0,0,1,177.16,406.09Z"></path></g><path d="M230.31,318a9.3,9.3,0,0,0-4.41-6.35L205.43,299.4a8.28,8.28,0,0,1-4-7.1v-9.75l-46.25,26.74-3.86,2.23v11a8.28,8.28,0,0,0,4.14,7.17l22,12.66a23.28,23.28,0,0,0,23.19,0L225.73,328A9.42,9.42,0,0,0,230.31,318Z" style="fill:#0D6EFD"></path><path d="M225.73,324.48l-24.94,14.27a23.66,23.66,0,0,1-23.55,0l-18.51-10.66a7.13,7.13,0,0,1-3.55-6.14V309.29l-3.86,2.23v11a8.28,8.28,0,0,0,4.14,7.17l22,12.66a23.28,23.28,0,0,0,23.19,0L225.73,328a9.42,9.42,0,0,0,4.58-10A9.33,9.33,0,0,1,225.73,324.48Z" style="opacity:0.30000000000000004"></path><path d="M158.73,328.05a7.13,7.13,0,0,1-3.55-6.14V309.29l-3.86,2.23v11a8.28,8.28,0,0,0,4.14,7.17l7.79,4.49v-3.5Z" style="opacity:0.4"></path><path d="M158.73,328.05l4.51,2.6h0l48.29-27.6-6.1-3.65a8.28,8.28,0,0,1-4-7.1v-9.75l-46.25,26.74v12.62A7.13,7.13,0,0,0,158.73,328.05Z" style="opacity:0.30000000000000004"></path><path d="M285.21,75.29c0-2.21-.78-3.77-2-4.51h0l0,0,0,0-7.41-4.29h0c-1.3-.82-3.12-.75-5.15.42L73.94,180.08c-.26.15-.52.32-.77.49l-.23.18c-.17.13-.35.26-.51.4l-.26.22-.47.42c-.08.08-.16.17-.25.25l-.44.47-.23.26c-.14.17-.29.34-.43.52l-.2.25c-.14.19-.29.39-.43.6l-.15.22c-.16.23-.3.46-.45.7l-.1.16c-.17.29-.33.58-.49.88h0c-.09.18-.18.36-.26.55s-.09.17-.13.26l-.21.5-.13.33-.17.47-.13.37c0,.15-.09.3-.13.44s-.07.28-.11.42-.07.27-.1.41l-.09.45-.06.37a4.78,4.78,0,0,0-.06.53c0,.09,0,.19,0,.29,0,.27,0,.54,0,.8l.36,158.18c0,2.12.72,3.63,1.88,4.41h0a3.84,3.84,0,0,0,.39.22l7.31,4.26.11.06,0,0c1.28.67,3,.54,4.91-.56L278.51,245.69a15.58,15.58,0,0,0,7.06-12.23Zm-12,6.83-118.3,68.12h0l-34.7,20h0L85,190.52,278.24,79.23Z" style="fill:#0D6EFD"></path><path d="M74.8,354.86l-.36-158.17a15.53,15.53,0,0,1,7.06-12.22L278.11,71.24c1.94-1.12,3.7-1.23,5-.52l-7.41-4.29h0c-1.3-.82-3.12-.75-5.15.42L73.94,180.08a15.57,15.57,0,0,0-7.06,12.22l.36,158.18c0,2.12.72,3.63,1.88,4.41h0a3.84,3.84,0,0,0,.39.22l7.31,4.26C75.58,358.63,74.8,357.07,74.8,354.86Z" style="fill:#0D6EFD"></path><path d="M275.69,66.43h0c-1.3-.82-3.12-.75-5.15.42L73.94,180.08a14.88,14.88,0,0,0-5.41,6l7.57,4.37a14.74,14.74,0,0,1,5.4-6L278.11,71.24c1.94-1.12,3.7-1.23,5-.52Z" style="fill:#fff;opacity:0.30000000000000004"></path><path d="M66.88,192.3l.36,158.18c0,2.12.72,3.63,1.88,4.41h0a3.84,3.84,0,0,0,.39.22l7.31,4.26c-1.25-.75-2-2.31-2-4.52l-.36-158.17a13.82,13.82,0,0,1,1.66-6.21l-7.57-4.37A14,14,0,0,0,66.88,192.3Z" style="opacity:0.2"></path><path d="M283.18,70.77l0,0,0,0Z" style="fill:#ffa8a7"></path><path d="M285.21,75.29c0-2.21-.78-3.77-2-4.51l0,0,0,0c-1.29-.71-3.05-.6-5,.52L81.5,184.47a15.53,15.53,0,0,0-7.06,12.22l.36,158.17c0,2.21.78,3.77,2,4.52l.11.06,0,0c1.28.67,3,.54,4.91-.56L278.51,245.69a15.58,15.58,0,0,0,7.06-12.23ZM275,239.63,81.77,350.92l-.34-154.25A8.75,8.75,0,0,1,85,190.52L278.24,79.23l.34,154.25A8.75,8.75,0,0,1,275,239.63Z" style="fill:#0D6EFD"></path><path d="M278.24,79.23l-5,2.89L273.57,231a8.8,8.8,0,0,1-3.57,6.15L81.76,345.59v5.33L275,239.63a8.75,8.75,0,0,0,3.56-6.15Z" style="fill:#0D6EFD"></path><path d="M278.24,79.23l-5,2.89L273.57,231a8.8,8.8,0,0,1-3.57,6.15L81.76,345.59v5.33L275,239.63a8.75,8.75,0,0,0,3.56-6.15Z" style="opacity:0.30000000000000004"></path><path d="M273.57,231l-.34-148.92L85,190.52a8.75,8.75,0,0,0-3.56,6.15l.33,148.92L270,237.19A8.8,8.8,0,0,0,273.57,231Z" style="fill:#455a64"></path><g style="opacity:0.2"><polygon points="232.32 105.68 166.07 297.04 188.73 284 254.98 92.63 232.32 105.68" style="fill:#fff"></polygon><polygon points="178.72 136.54 112.47 327.9 125.65 320.32 191.9 128.96 178.72 136.54" style="fill:#fff"></polygon><polygon points="120.23 170.22 81.62 281.77 81.76 345.59 88.68 341.61 154.93 150.24 120.23 170.22" style="fill:#fff"></polygon><polygon points="273.39 150.4 236.7 256.37 249.02 249.28 273.45 178.7 273.39 150.4" style="fill:#fff"></polygon><polygon points="273.24 82.12 268.96 84.58 202.71 275.94 211.52 270.87 273.26 92.53 273.24 82.12" style="fill:#fff"></polygon></g></g></svg>